<svg width="1101.15" height="790.45" xmlns="http://www.w3.org/2000/svg"><path fill="none" d="M-1-1h1103.15v792.45H-1z"/><path opacity=".1" fill="#81efc9" d="M709.17 84.773c-43.78 30.47-100.57 28.5-150.34 12.65s-95.48-44.09-144-64.16A470.28 470.28 0 0 0 288.37.483c-61.8-7-130.81 1.53-173.87 50.8-47.95 54.87-44.27 153.82 7.59 204.19 26.38 25.62 60.93 38.19 91 58.19s58 53.22 55.45 91.83c-2.38 35.74-30 63.16-58.57 80.37-22.08 13.3-49.29 27.82-51.95 55.37-2.57 26.65 20.3 47.54 42.14 59.41 71.25 38.75 159 38.38 230-1 25.32-14 48.6-32.71 75.15-43.65 69.73-28.73 146.56.19 220.39 10.76a443.07 443.07 0 0 0 187.44-13.56c36.57-10.74 73.27-27.15 98.95-57.73 18.52-22 30.06-49.95 40.9-77.5q17.32-44.08 33.31-88.78c6.39-17.89 12.69-36.12 14.34-55.26 3-34.69-9.62-69-26.79-98.24-40.77-69.49-109.45-118.36-183.78-130.77s-153.09 11.83-210.77 64.88"/><rect stroke="null" fill="#8cd790" ry="30.34" rx="30.34" height="430.923" width="979.794" y="132.313" x="43.096"/><path fill="#fff" d="M478.51 359.05a2.27 2.27 0 0 1-2.27-2.27v-6.55a2.27 2.27 0 1 1 4.54 0v6.57a2.27 2.27 0 0 1-2.27 2.25zm-11.5 4.76a2.26 2.26 0 0 1-1.6-.66l-4.64-4.65a2.27 2.27 0 1 1 3.2-3.21l4.65 4.65a2.27 2.27 0 0 1-1.61 3.87zm27.65 27.64a2.28 2.28 0 0 1-1.61-.66l-4.64-4.65a2.27 2.27 0 1 1 3.21-3.2l4.64 4.64a2.27 2.27 0 0 1-1.6 3.87zm6.68-16.14h-6.57a2.27 2.27 0 0 1 0-4.54h6.57a2.27 2.27 0 0 1 0 4.54zm-11.33-11.5a2.27 2.27 0 0 1-1.6-3.87l4.64-4.65a2.27 2.27 0 1 1 3.21 3.21l-4.64 4.65a2.3 2.3 0 0 1-1.61.66z"/><path fill="#fff" d="M490.57 373.04a12 12 0 0 0-21.77-7 16.87 16.87 0 0 0-24.23 9.08 11.34 11.34 0 0 0-3.89.23 11.3 11.3 0 0 0-8.38 13.58 11.27 11.27 0 0 0 11 8.69h30.27a13.31 13.31 0 0 0 3-.35 13.05 13.05 0 0 0 9.79-15.19 12 12 0 0 0 4.21-9.04zm-15 19.81a8.08 8.08 0 0 1-2 .23h-30.32a6.75 6.75 0 0 1-1.55-13.31 6.86 6.86 0 0 1 1.56-.19 6.6 6.6 0 0 1 2.15.36 2.29 2.29 0 0 0 1.86-.18 2.26 2.26 0 0 0 1.09-1.51 12.34 12.34 0 0 1 22.89-3.45.31.31 0 0 1 .05.1 2.3 2.3 0 0 0 2.07 1.19h.25a8.46 8.46 0 0 1 7.24 4 8.78 8.78 0 0 1 1 2.5 9.19 9.19 0 0 1 .23 1.87 8.51 8.51 0 0 1-6.52 8.39zm6.08-18.54a13.2 13.2 0 0 0-7-2.73 16.79 16.79 0 0 0-2.25-2.78 7.47 7.47 0 1 1 12.17 8.66 13.08 13.08 0 0 0-2.92-3.15z"/><path stroke="null" d="M658.01 370.23a13 13 0 0 0-11.69-10 16.87 16.87 0 0 0-27.63-1 16.87 16.87 0 0 0-15.12 11.26 11.29 11.29 0 1 0-1.29 22.51h30.29a13.29 13.29 0 0 0 3-.35 13.05 13.05 0 0 0 8.38-6.34h1.34a13.31 13.31 0 0 0 3-.35 13.06 13.06 0 0 0 9.72-15.73zm-19.77 16a8.5 8.5 0 0 1-3.67 2 8.76 8.76 0 0 1-2 .23h-30.34a6.75 6.75 0 0 1-1.55-13.32 6.87 6.87 0 0 1 3 0 5.94 5.94 0 0 1 .72.21 2.29 2.29 0 0 0 3-1.7 12.37 12.37 0 0 1 12.08-9.83 11.8 11.8 0 0 1 1.69.12 12.34 12.34 0 0 1 9.17 6.36 2.24 2.24 0 0 0 2.06 1.19h.17a8.5 8.5 0 0 1 5.63 14.85l.04-.11zm9-4.77a8.18 8.18 0 0 1-1.77.23 12.86 12.86 0 0 0-.23-4.81 13 13 0 0 0-11.69-10 16.88 16.88 0 0 0-9.32-7 12.32 12.32 0 0 1 18.74 3.62 2.26 2.26 0 0 0 2.07 1.19h.25a8.5 8.5 0 0 1 2 16.77h-.05z" fill="#fff"/><g stroke="null" fill="#fff"><path d="M948.57 391.69l-1.46-.85 1.46-.84a1.14 1.14 0 0 0-1.13-2l-1.47.85v-1.62a1.14 1.14 0 1 0-2.27 0v1.67l-1.45-.84a1.14 1.14 0 0 0-1.13 2l1.45.83-1.45.84a1.13 1.13 0 0 0-.41 1.55 1.14 1.14 0 0 0 1 .57 1 1 0 0 0 .56-.16l1.45-.83v1.69a1.14 1.14 0 0 0 2.27 0v-1.69l1.47.84a1 1 0 0 0 .56.16 1.16 1.16 0 0 0 1-.57 1.14 1.14 0 0 0-.45-1.6zm-6.83-9.46l-1.46-.84 1.46-.85a1.12 1.12 0 0 0 .41-1.54 1.13 1.13 0 0 0-1.55-.42l-1.46.85v-1.68a1.14 1.14 0 0 0-2.27 0v1.67l-1.45-.83a1.13 1.13 0 1 0-1.13 2l1.45.84-1.45.83a1.13 1.13 0 0 0 .57 2.12 1.12 1.12 0 0 0 .56-.15l1.45-.84v1.7a1.14 1.14 0 0 0 2.27 0v-1.7l1.43.84a1.18 1.18 0 0 0 .57.15 1.14 1.14 0 0 0 .57-2.12l.03-.03zm-6.81 9.46l-1.46-.85 1.46-.84a1.14 1.14 0 0 0-1.13-2l-1.47.85v-1.62a1.14 1.14 0 1 0-2.27 0v1.67l-1.44-.84a1.14 1.14 0 0 0-1.14 2l1.45.83-1.45.84a1.13 1.13 0 0 0-.41 1.55 1.14 1.14 0 0 0 1 .57 1.1 1.1 0 0 0 .57-.16l1.44-.83v1.69a1.14 1.14 0 0 0 2.27 0v-1.69l1.47.84a1 1 0 0 0 .56.16 1.14 1.14 0 0 0 .57-2.12l-.02-.05z"/><path d="M965.01 367.63a13.05 13.05 0 0 0-11.69-10 16.88 16.88 0 0 0-30.08 3.53 11.29 11.29 0 1 0-1.29 22.51h3.62a2.27 2.27 0 0 0 0-4.54h-3.65a6.72 6.72 0 0 1-6.56-5.2 6.77 6.77 0 0 1 5-8.12 6.84 6.84 0 0 1 3.72.17 2.27 2.27 0 0 0 3-1.69 12.34 12.34 0 0 1 22.94-3.35 2.26 2.26 0 0 0 2.06 1.19h.26a8.5 8.5 0 0 1 2 16.77 8.74 8.74 0 0 1-2 .23h-1.89a2.27 2.27 0 0 0 0 4.54h1.89a13 13 0 0 0 12.69-16.05l-.02.01z"/></g><g fill="#fff"><path d="M798.57 381.33a13.29 13.29 0 0 1-3 .35h-5.17a2.27 2.27 0 0 1 0-4.54h5.17a8.76 8.76 0 0 0 2-.23 8.5 8.5 0 0 0-2-16.77h-.26a2.24 2.24 0 0 1-2.06-1.19 12.35 12.35 0 0 0-23 3.35 2.26 2.26 0 0 1-3 1.69 6.76 6.76 0 0 0-7.9 2.85 6.76 6.76 0 0 0 5.74 10.3h7.6a2.27 2.27 0 0 1 0 4.54h-7.6a11.29 11.29 0 0 1-9.6-17.22 11.35 11.35 0 0 1 10.89-5.29 16.87 16.87 0 0 1 30.19-3.53 13 13 0 0 1 2 25.69z"/><path d="M782.21 381.09h3.2l-6.85 16.54 1.64-11.92h-3.05l2.41-13.21h6.23l-3.58 8.59z"/></g><path d="M311.29 358.79a2.27 2.27 0 0 1-2.26-2.27v-6.57a2.27 2.27 0 1 1 4.53 0v6.57a2.27 2.27 0 0 1-2.27 2.27zm-16.26 16.26h-6.57a2.27 2.27 0 0 1 0-4.54h6.57a2.27 2.27 0 0 1 0 4.54zm16.26 22.83a2.27 2.27 0 0 1-2.26-2.27v-6.57a2.27 2.27 0 0 1 4.53 0v6.57a2.27 2.27 0 0 1-2.27 2.27zm22.83-22.83h-6.55a2.27 2.27 0 0 1 0-4.54h6.56a2.27 2.27 0 0 1 0 4.54h-.01zm-22.83 9.74a12 12 0 1 1 12-12 12 12 0 0 1-12 12zm0-19.48a7.47 7.47 0 1 0 7.48 7.47 7.48 7.48 0 0 0-7.48-7.47zm-11.49-1.76a2.26 2.26 0 0 1-1.61-.66l-2.32-2.32a2.27 2.27 0 0 1 3.21-3.21l2.32 2.32a2.27 2.27 0 0 1-1.6 3.87zm-2.33 25.32a2.27 2.27 0 0 1-1.6-3.87l2.32-2.32a2.27 2.27 0 1 1 3.21 3.21l-2.32 2.34a2.3 2.3 0 0 1-1.61.64zm27.65 0a2.28 2.28 0 0 1-1.61-.66l-2.32-2.32a2.27 2.27 0 0 1 3.21-3.21l2.32 2.32a2.27 2.27 0 0 1-1.6 3.87zm-2.33-25.32a2.27 2.27 0 0 1-1.6-3.87l2.32-2.32a2.27 2.27 0 0 1 3.21 3.21l-2.32 2.32a2.28 2.28 0 0 1-1.61.66z" stroke="null" fill="#fff"/><rect fill="#f6f7f9" ry="14" rx="14" height="28" width="91.54" y="263.1" x="265.53"/><rect fill="#f6f7f9" ry="14" rx="14" height="28" width="91.54" y="263.1" x="422.14"/><rect fill="#f6f7f9" ry="14" rx="14" height="28" width="91.54" y="263.1" x="578.76"/><rect fill="#f6f7f9" ry="14" rx="14" height="28" width="91.54" y="263.1" x="735.38"/><rect fill="#f6f7f9" ry="14" rx="14" height="28" width="91.54" y="263.1" x="892"/><path fill="none" opacity=".1" d="M187.96 655.9a15.48 15.48 0 0 0-1.85 5.33c5.24 7.63 36.41-.37 39-1a104.23 104.23 0 0 1-3.81-11.61s-31.09 4.18-33.34 7.28z"/><ellipse opacity=".1" fill="#81efc9" ry="12.24" rx="79.78" cy="660.81" cx="808.62"/><ellipse opacity=".1" fill="#81efc9" ry="6.06" rx="39.46" cy="754.4" cx="196.086"/><ellipse opacity=".1" fill="#81efc9" ry="6.06" rx="39.46" cy="753.13" cx="641.1"/><ellipse opacity=".1" fill="#81efc9" ry="6.06" rx="39.46" cy="709.39" cx="459.31"/><ellipse opacity=".1" fill="#81efc9" ry="6.06" rx="39.46" cy="673.06" cx="574.177"/><path fill="#8cd790" d="M1012.07 604.23s6.64 8.69-3.07 21.8-17.71 24.2-14.43 32.33c0 0 14.64-24.35 26.57-24.69s4.04-14.82-9.07-29.44z"/><path opacity=".1" d="M1012.07 604.23a10.93 10.93 0 0 1 1.36 2.73c11.63 13.66 17.83 26.42 6.64 26.74-10.41.29-22.91 18.92-25.9 23.62a10.34 10.34 0 0 0 .36 1.07s14.64-24.35 26.57-24.69 4.08-14.85-9.03-29.47z"/><path fill="#ffd037" d="M1024.42 615.23c0 3.06-.35 5.54-.77 5.54s-.77-2.48-.77-5.54.43-1.61.86-1.61.68-1.39.68 1.61z"/><path fill="#ffd037" d="M1028.65 618.92c-2.68 1.47-5 2.35-5.22 2s1.81-1.86 4.49-3.32 1.63-.4 1.83 0 1.59-.14-1.1 1.32z"/><path fill="#8cd790" d="M976.98 604.23s-6.64 8.69 3.07 21.8 17.71 24.2 14.52 32.33c0 0-14.65-24.35-26.57-24.69s-4.13-14.82 8.98-29.44z"/><path opacity=".1" d="M976.98 604.23a10.74 10.74 0 0 0-1.35 2.73c-11.63 13.66-17.83 26.42-6.65 26.74 10.41.29 22.91 18.92 25.9 23.62a10.28 10.28 0 0 1-.35 1.07s-14.65-24.35-26.57-24.69-4.09-14.85 9.02-29.47z"/><path fill="#ffd037" d="M964.64 615.23c0 3.06.34 5.54.76 5.54s.77-2.48.77-5.54-.43-1.61-.85-1.61-.68-1.39-.68 1.61z"/><path fill="#ffd037" d="M960.4 618.92c2.68 1.47 5 2.35 5.23 2s-1.81-1.86-4.5-3.32-1.62-.4-1.82 0-1.59-.14 1.09 1.32z"/><ellipse opacity=".1" fill="#81efc9" ry="10.66" rx="69.45" cy="714.15" cx="994.53"/><path fill="#65617d" d="M1030.27 646.66l-.33 2.71-.47 3.83-.19 1.6-.47 3.83-.2 1.6-.46 3.83-5.32 43.56c-.47 3.89-6.83 6.92-14.5 6.92h-27.61c-7.67 0-14-3-14.49-6.92l-5.32-43.56-.47-3.83-.19-1.6-.48-3.83-.2-1.57-.46-3.83-.34-2.71c-.26-2.2 3.17-4.06 7.51-4.06h56.48c4.34-.03 7.81 1.83 7.51 4.03z"/><path fill="#9d9cb5" d="M1029.94 649.37l-.47 3.82h-69.89l-.46-3.82h70.82zm-.66 5.42l-.46 3.84h-68.57l-.47-3.84h69.5zm-.67 5.43l-.46 3.83h-67.24l-.46-3.83h68.16z"/></svg>