<svg xmlns="http://www.w3.org/2000/svg" width="64" height="64"><defs><filter id="blur" width="200%" height="200%"><feGaussianBlur in="SourceAlpha" stdDeviation="3"/><feOffset dy="4" result="offsetblur"/><feComponentTransfer><feFuncA type="linear" slope=".05"/></feComponentTransfer><feMerge><feMergeNode/><feMergeNode in="SourceGraphic"/></feMerge></filter><style>@keyframes am-weather-cloud-2{0%{-webkit-transform:translate(0,0);-moz-transform:translate(0,0);-ms-transform:translate(0,0);transform:translate(0,0)}50%{-webkit-transform:translate(2px,0);-moz-transform:translate(2px,0);-ms-transform:translate(2px,0);transform:translate(2px,0)}}@keyframes am-weather-sun{0%{-webkit-transform:rotate(0deg);-moz-transform:rotate(0deg);-ms-transform:rotate(0deg);transform:rotate(0deg)}}@keyframes am-weather-sun-shiny{0%{stroke-dasharray:3px 10px;stroke-dashoffset:0}50%{stroke-dasharray:.1px 10px;stroke-dashoffset:-1px}}</style></defs><g filter="url(#blur)" id="cloudy-day-1"><g transform="translate(20 26)" stroke="orange" stroke-width="2"><path fill="none" stroke-linecap="round" d="M0 9v3m-6.364-5.636l-2.121 2.121M-9 0h-3m5.636-6.364l-2.121-2.121M0-9v-3m6.364 5.636l2.121-2.121M9 0h3M6.364 6.364l2.121 2.121"/><circle fill="orange" r="5"/></g><path d="M47.7 34.4c0-4.6-3.7-8.2-8.2-8.2-1 0-1.9.2-2.8.5-.3-3.4-3.1-6.2-6.6-6.2-3.7 0-6.7 3-6.7 6.7 0 .8.2 1.6.4 2.3-.3-.1-.7-.1-1-.1-3.7 0-6.7 3-6.7 6.7 0 3.6 2.9 6.6 6.5 6.7h17.2c4.4-.5 7.9-4 7.9-8.4z" fill="#C6DEFF" stroke="#fff" stroke-linejoin="round" stroke-width="1.2"/></g></svg>