<svg xmlns="http://www.w3.org/2000/svg" width="193" height="158"><rect width="100%" height="100%" fill="none"/><path fill="none" d="M-1-1h1105v794H-1z"/><g class="currentLayer"><path d="M112.761 19.152s6.64 8.69-3.07 21.8-17.71 24.2-14.43 32.33c0 0 14.64-24.35 26.57-24.69s4.04-14.82-9.07-29.44z" fill="#8cd790"/><path d="M112.761 19.152a10.93 10.93 0 0 1 1.36 2.73c11.63 13.66 17.83 26.42 6.64 26.74-10.41.29-22.91 18.92-25.9 23.62a10.34 10.34 0 0 0 .36 1.07s14.64-24.35 26.57-24.69 4.08-14.85-9.03-29.47z" opacity=".1"/><path d="M125.111 30.152c0 3.06-.35 5.54-.77 5.54s-.77-2.48-.77-5.54.43-1.61.86-1.61.68-1.39.68 1.61z" fill="#ffd037"/><path d="M129.341 33.842c-2.68 1.47-5 2.35-5.22 2s1.81-1.86 4.49-3.32 1.63-.4 1.83 0 1.59-.14-1.1 1.32z" fill="#ffd037"/><path d="M77.671 19.152s-6.64 8.69 3.07 21.8 17.71 24.2 14.52 32.33c0 0-14.65-24.35-26.57-24.69s-4.13-14.82 8.98-29.44z" fill="#8cd790"/><path d="M77.671 19.152a10.74 10.74 0 0 0-1.35 2.73c-11.63 13.66-17.83 26.42-6.65 26.74 10.41.29 22.91 18.92 25.9 23.62a10.28 10.28 0 0 1-.35 1.07s-14.65-24.35-26.57-24.69-4.09-14.85 9.02-29.47z" opacity=".1"/><path d="M65.331 30.152c0 3.06.34 5.54.76 5.54s.77-2.48.77-5.54-.43-1.61-.85-1.61-.68-1.39-.68 1.61z" fill="#ffd037"/><path d="M61.091 33.842c2.68 1.47 5 2.35 5.23 2s-1.81-1.86-4.5-3.32-1.62-.4-1.82 0-1.59-.14 1.09 1.32z" fill="#ffd037"/><ellipse cx="95.221" cy="129.072" rx="69.45" ry="10.66" fill="#81efc9" opacity=".1"/><path d="M130.961 61.582l-.33 2.71-.47 3.83-.19 1.6-.47 3.83-.2 1.6-.46 3.83-5.32 43.56c-.47 3.89-6.83 6.92-14.5 6.92h-27.61c-7.67 0-14-3-14.49-6.92l-5.32-43.56-.47-3.83-.19-1.6-.48-3.83-.2-1.57-.46-3.83-.34-2.71c-.26-2.2 3.17-4.06 7.51-4.06h56.48c4.34-.03 7.81 1.83 7.51 4.03z" fill="#65617d"/><path fill="#9d9cb5" d="M130.631 64.292l-.47 3.82h-69.89l-.46-3.82h70.82zm-.66 5.42l-.46 3.84h-68.57l-.47-3.84h69.5zm-.67 5.43l-.46 3.83h-67.24l-.46-3.83h68.16z"/></g></svg>