<svg width="1101.15" height="790.45" xmlns="http://www.w3.org/2000/svg">

 <title>weather</title>
 <g>
  <title>background</title>
  <rect fill="none" id="canvas_background" height="792.45" width="1103.15" y="-1" x="-1"/>
 </g>
 <g>
  <title>Layer 1</title>
  <path id="svg_1" opacity="0.1" fill="#81efc9" d="m709.17,84.77333c-43.78,30.47 -100.57,28.5 -150.34,12.65s-95.48,-44.09 -144,-64.16a470.28,470.28 0 0 0 -126.46,-32.78c-61.8,-7 -130.81,1.53 -173.87,50.8c-47.95,54.87 -44.27,153.82 7.59,204.19c26.38,25.62 60.93,38.19 91,58.19s58,53.22 55.45,91.83c-2.38,35.74 -30,63.16 -58.57,80.37c-22.08,13.3 -49.29,27.82 -51.95,55.37c-2.57,26.65 20.3,47.54 42.14,59.41c71.25,38.75 159,38.38 230,-1c25.32,-14 48.6,-32.71 75.15,-43.65c69.73,-28.73 146.56,0.19 220.39,10.76a443.07,443.07 0 0 0 187.44,-13.56c36.57,-10.74 73.27,-27.15 98.95,-57.73c18.52,-22 30.06,-49.95 40.9,-77.5q17.32,-44.08 33.31,-88.78c6.39,-17.89 12.69,-36.12 14.34,-55.26c3,-34.69 -9.62,-69 -26.79,-98.24c-40.77,-69.49 -109.45,-118.36 -183.78,-130.77s-153.09,11.83 -210.77,64.88"/>
  <rect stroke="null" id="svg_3" fill="#8cd790" ry="30.34" rx="30.34" height="430.923423" width="979.793645" y="132.313246" x="43.096351"/>
  <path id="svg_14" fill="#fff" d="m478.51,359.05a2.27,2.27 0 0 1 -2.27,-2.27l0,-6.55a2.27,2.27 0 1 1 4.54,0l0,6.57a2.27,2.27 0 0 1 -2.27,2.25z"/>
  <path id="svg_15" fill="#fff" d="m467.01,363.81a2.26,2.26 0 0 1 -1.6,-0.66l-4.64,-4.65a2.27,2.27 0 1 1 3.2,-3.21l4.65,4.65a2.27,2.27 0 0 1 -1.61,3.87z"/>
  <path id="svg_16" fill="#fff" d="m494.66,391.45a2.28,2.28 0 0 1 -1.61,-0.66l-4.64,-4.65a2.27,2.27 0 1 1 3.21,-3.2l4.64,4.64a2.27,2.27 0 0 1 -1.6,3.87z"/>
  <path id="svg_17" fill="#fff" d="m501.34,375.31l-6.57,0a2.27,2.27 0 0 1 0,-4.54l6.57,0a2.27,2.27 0 0 1 0,4.54z"/>
  <path id="svg_18" fill="#fff" d="m490.01,363.81a2.27,2.27 0 0 1 -1.6,-3.87l4.64,-4.65a2.27,2.27 0 1 1 3.21,3.21l-4.64,4.65a2.3,2.3 0 0 1 -1.61,0.66z"/>
  <path id="svg_19" fill="#fff" d="m490.57,373.04a12,12 0 0 0 -21.77,-7a16.87,16.87 0 0 0 -24.23,9.08a11.34,11.34 0 0 0 -3.89,0.23a11.3,11.3 0 0 0 -8.38,13.58a11.27,11.27 0 0 0 11,8.69l30.27,0a13.31,13.31 0 0 0 3,-0.35a13.05,13.05 0 0 0 9.79,-15.19a12,12 0 0 0 4.21,-9.04zm-15,19.81a8.08,8.08 0 0 1 -2,0.23l-30.32,0a6.75,6.75 0 0 1 -1.55,-13.31a6.86,6.86 0 0 1 1.56,-0.19a6.6,6.6 0 0 1 2.15,0.36a2.29,2.29 0 0 0 1.86,-0.18a2.26,2.26 0 0 0 1.09,-1.51a12.34,12.34 0 0 1 22.89,-3.45a0.31,0.31 0 0 1 0.05,0.1a2.3,2.3 0 0 0 2.07,1.19l0.25,0a8.46,8.46 0 0 1 7.24,4a8.78,8.78 0 0 1 1,2.5a9.19,9.19 0 0 1 0.23,1.87a8.51,8.51 0 0 1 -6.52,8.39zm6.08,-18.54a13.2,13.2 0 0 0 -7,-2.73a16.79,16.79 0 0 0 -2.25,-2.78a7.47,7.47 0 1 1 12.17,8.66a13.08,13.08 0 0 0 -2.92,-3.15z"/>
  <g fill="#fff" id="svg_20">
   <path stroke="null" id="svg_21" fill="#fff" d="m658.01,370.23a13,13 0 0 0 -11.69,-10a16.87,16.87 0 0 0 -27.63,-1a16.87,16.87 0 0 0 -15.12,11.26a11.29,11.29 0 1 0 -1.29,22.51l30.29,0a13.29,13.29 0 0 0 3,-0.35a13.05,13.05 0 0 0 8.38,-6.34l1.34,0a13.31,13.31 0 0 0 3,-0.35a13.06,13.06 0 0 0 9.72,-15.73zm-19.77,16a8.5,8.5 0 0 1 -3.67,2a8.76,8.76 0 0 1 -2,0.23l-30.34,0a6.75,6.75 0 0 1 -1.55,-13.32a6.87,6.87 0 0 1 3,0a5.94,5.94 0 0 1 0.72,0.21a2.29,2.29 0 0 0 3,-1.7a12.37,12.37 0 0 1 12.08,-9.83a11.8,11.8 0 0 1 1.69,0.12a12.34,12.34 0 0 1 9.17,6.36a2.24,2.24 0 0 0 2.06,1.19l0.17,0a8.5,8.5 0 0 1 5.63,14.85l0.04,-0.11zm9,-4.77a8.18,8.18 0 0 1 -1.77,0.23a12.86,12.86 0 0 0 -0.23,-4.81a13,13 0 0 0 -11.69,-10a16.88,16.88 0 0 0 -9.32,-7a12.32,12.32 0 0 1 18.74,3.62a2.26,2.26 0 0 0 2.07,1.19l0.25,0a8.5,8.5 0 0 1 2,16.77l-0.05,0z"/>
  </g>
  <g stroke="null" fill="#fff" id="svg_22">
   <path id="svg_23" fill="#fff" d="m948.57,391.69l-1.46,-0.85l1.46,-0.84a1.14,1.14 0 0 0 -1.13,-2l-1.47,0.85l0,-1.62a1.14,1.14 0 1 0 -2.27,0l0,1.67l-1.45,-0.84a1.14,1.14 0 0 0 -1.13,2l1.45,0.83l-1.45,0.84a1.13,1.13 0 0 0 -0.41,1.55a1.14,1.14 0 0 0 1,0.57a1,1 0 0 0 0.56,-0.16l1.45,-0.83l0,1.69a1.14,1.14 0 0 0 2.27,0l0,-1.69l1.47,0.84a1,1 0 0 0 0.56,0.16a1.16,1.16 0 0 0 1,-0.57a1.14,1.14 0 0 0 -0.45,-1.6z"/>
   <path id="svg_24" fill="#fff" d="m941.74,382.23l-1.46,-0.84l1.46,-0.85a1.12,1.12 0 0 0 0.41,-1.54a1.13,1.13 0 0 0 -1.55,-0.42l-1.46,0.85l0,-1.68a1.14,1.14 0 0 0 -2.27,0l0,1.67l-1.45,-0.83a1.13,1.13 0 1 0 -1.13,2l1.45,0.84l-1.45,0.83a1.13,1.13 0 0 0 0.57,2.12a1.12,1.12 0 0 0 0.56,-0.15l1.45,-0.84l0,1.7a1.14,1.14 0 0 0 2.27,0l0,-1.7l1.43,0.84a1.18,1.18 0 0 0 0.57,0.15a1.14,1.14 0 0 0 0.57,-2.12l0.03,-0.03z"/>
   <path id="svg_25" fill="#fff" d="m934.93,391.69l-1.46,-0.85l1.46,-0.84a1.14,1.14 0 0 0 -1.13,-2l-1.47,0.85l0,-1.62a1.14,1.14 0 1 0 -2.27,0l0,1.67l-1.44,-0.84a1.14,1.14 0 0 0 -1.14,2l1.45,0.83l-1.45,0.84a1.13,1.13 0 0 0 -0.41,1.55a1.14,1.14 0 0 0 1,0.57a1.1,1.1 0 0 0 0.57,-0.16l1.44,-0.83l0,1.69a1.14,1.14 0 0 0 2.27,0l0,-1.69l1.47,0.84a1,1 0 0 0 0.56,0.16a1.14,1.14 0 0 0 0.57,-2.12l-0.02,-0.05z"/>
   <path id="svg_26" fill="#fff" d="m965.01,367.63a13.05,13.05 0 0 0 -11.69,-10a16.88,16.88 0 0 0 -30.08,3.53a11.29,11.29 0 1 0 -1.29,22.51l3.62,0a2.27,2.27 0 0 0 0,-4.54l-3.65,0a6.72,6.72 0 0 1 -6.56,-5.2a6.77,6.77 0 0 1 5,-8.12a6.84,6.84 0 0 1 3.72,0.17a2.27,2.27 0 0 0 3,-1.69a12.34,12.34 0 0 1 22.94,-3.35a2.26,2.26 0 0 0 2.06,1.19l0.26,0a8.5,8.5 0 0 1 2,16.77a8.74,8.74 0 0 1 -2,0.23l-1.89,0a2.27,2.27 0 0 0 0,4.54l1.89,0a13,13 0 0 0 12.69,-16.05l-0.02,0.01z"/>
  </g>
  <g fill="#fff" id="svg_27">
   <path id="svg_28" fill="#fff" d="m798.57,381.33a13.29,13.29 0 0 1 -3,0.35l-5.17,0a2.27,2.27 0 0 1 0,-4.54l5.17,0a8.76,8.76 0 0 0 2,-0.23a8.5,8.5 0 0 0 -2,-16.77l-0.26,0a2.24,2.24 0 0 1 -2.06,-1.19a12.35,12.35 0 0 0 -23,3.35a2.26,2.26 0 0 1 -3,1.69a6.76,6.76 0 0 0 -7.9,2.85a6.76,6.76 0 0 0 5.74,10.3l7.6,0a2.27,2.27 0 0 1 0,4.54l-7.6,0a11.29,11.29 0 0 1 -9.6,-17.22a11.35,11.35 0 0 1 10.89,-5.29a16.87,16.87 0 0 1 30.19,-3.53a13,13 0 0 1 2,25.69z"/>
   <polygon id="svg_29" fill="#fff" points="782.21 381.09 785.41 381.09 778.56 397.63 780.2 385.71 777.15 385.71 779.56 372.5 785.79 372.5 782.21 381.09"/>
  </g>
  <g stroke="null" fill="#8cd790" id="svg_30">
   <path id="svg_31" fill="#fff" d="m311.29,358.79a2.27,2.27 0 0 1 -2.26,-2.27l0,-6.57a2.27,2.27 0 1 1 4.53,0l0,6.57a2.27,2.27 0 0 1 -2.27,2.27z"/>
   <path id="svg_32" fill="#fff" d="m295.03,375.05l-6.57,0a2.27,2.27 0 0 1 0,-4.54l6.57,0a2.27,2.27 0 0 1 0,4.54z"/>
   <path id="svg_33" fill="#fff" d="m311.29,397.88a2.27,2.27 0 0 1 -2.26,-2.27l0,-6.57a2.27,2.27 0 0 1 4.53,0l0,6.57a2.27,2.27 0 0 1 -2.27,2.27z"/>
   <path id="svg_34" fill="#fff" d="m334.12,375.05l-6.55,0a2.27,2.27 0 0 1 0,-4.54l6.56,0a2.27,2.27 0 0 1 0,4.54l-0.01,0z"/>
   <path stroke="null" id="svg_35" fill="#fff" d="m311.29,384.79a12,12 0 1 1 12,-12a12,12 0 0 1 -12,12zm0,-19.48a7.47,7.47 0 1 0 7.48,7.47a7.48,7.48 0 0 0 -7.48,-7.47z"/>
   <path id="svg_36" fill="#fff" d="m299.8,363.55a2.26,2.26 0 0 1 -1.61,-0.66l-2.32,-2.32a2.27,2.27 0 0 1 3.21,-3.21l2.32,2.32a2.27,2.27 0 0 1 -1.6,3.87z"/>
   <path id="svg_37" fill="#fff" d="m297.47,388.87a2.27,2.27 0 0 1 -1.6,-3.87l2.32,-2.32a2.27,2.27 0 1 1 3.21,3.21l-2.32,2.34a2.3,2.3 0 0 1 -1.61,0.64z"/>
   <path id="svg_38" fill="#fff" d="m325.12,388.87a2.28,2.28 0 0 1 -1.61,-0.66l-2.32,-2.32a2.27,2.27 0 0 1 3.21,-3.21l2.32,2.32a2.27,2.27 0 0 1 -1.6,3.87z"/>
   <path id="svg_39" fill="#fff" d="m322.79,363.55a2.27,2.27 0 0 1 -1.6,-3.87l2.32,-2.32a2.27,2.27 0 0 1 3.21,3.21l-2.32,2.32a2.28,2.28 0 0 1 -1.61,0.66z"/>
  </g>
  <rect id="svg_40" fill="#f6f7f9" ry="14" rx="14" height="28" width="91.54" y="263.1" x="265.53"/>
  <rect id="svg_41" fill="#f6f7f9" ry="14" rx="14" height="28" width="91.54" y="263.1" x="422.14"/>
  <rect id="svg_42" fill="#f6f7f9" ry="14" rx="14" height="28" width="91.54" y="263.1" x="578.76"/>
  <rect id="svg_43" fill="#f6f7f9" ry="14" rx="14" height="28" width="91.54" y="263.1" x="735.38"/>
  <rect id="svg_44" fill="#f6f7f9" ry="14" rx="14" height="28" width="91.54" y="263.1" x="892"/>
  <path fill="#d7fff1" fill-opacity="0" id="svg_49" opacity="0.1" d="m187.96,655.9a15.48,15.48 0 0 0 -1.85,5.33c5.24,7.63 36.41,-0.37 39,-1a104.23,104.23 0 0 1 -3.81,-11.61s-31.09,4.18 -33.34,7.28z"/>
  <ellipse id="svg_96" opacity="0.1" fill="#81efc9" ry="12.24" rx="79.78" cy="660.81" cx="808.62"/>
  <ellipse id="svg_97" opacity="0.1" fill="#81efc9" ry="6.06" rx="39.46" cy="754.399948" cx="196.086336"/>
  <ellipse id="svg_98" opacity="0.1" fill="#81efc9" ry="6.06" rx="39.46" cy="753.13" cx="641.1"/>
  <ellipse id="svg_99" opacity="0.1" fill="#81efc9" ry="6.06" rx="39.46" cy="709.39" cx="459.31"/>
  <ellipse id="svg_100" opacity="0.1" fill="#81efc9" ry="6.06" rx="39.46" cy="673.06" cx="574.176661"/>
  <path id="svg_101" fill="#8cd790" d="m1012.07,604.23s6.64,8.69 -3.07,21.8s-17.71,24.2 -14.43,32.33c0,0 14.64,-24.35 26.57,-24.69s4.04,-14.82 -9.07,-29.44z"/>
  <path id="svg_102" opacity="0.1" d="m1012.07,604.23a10.93,10.93 0 0 1 1.36,2.73c11.63,13.66 17.83,26.42 6.64,26.74c-10.41,0.29 -22.91,18.92 -25.9,23.62a10.34,10.34 0 0 0 0.36,1.07s14.64,-24.35 26.57,-24.69s4.08,-14.85 -9.03,-29.47z"/>
  <path id="svg_103" fill="#ffd037" d="m1024.42,615.23c0,3.06 -0.35,5.54 -0.77,5.54s-0.77,-2.48 -0.77,-5.54s0.43,-1.61 0.86,-1.61s0.68,-1.39 0.68,1.61z"/>
  <path id="svg_104" fill="#ffd037" d="m1028.65,618.92c-2.68,1.47 -5,2.35 -5.22,2s1.81,-1.86 4.49,-3.32s1.63,-0.4 1.83,0s1.59,-0.14 -1.1,1.32z"/>
  <path id="svg_105" fill="#8cd790" d="m976.98,604.23s-6.64,8.69 3.07,21.8s17.71,24.2 14.52,32.33c0,0 -14.65,-24.35 -26.57,-24.69s-4.13,-14.82 8.98,-29.44z"/>
  <path id="svg_106" opacity="0.1" d="m976.98,604.23a10.74,10.74 0 0 0 -1.35,2.73c-11.63,13.66 -17.83,26.42 -6.65,26.74c10.41,0.29 22.91,18.92 25.9,23.62a10.28,10.28 0 0 1 -0.35,1.07s-14.65,-24.35 -26.57,-24.69s-4.09,-14.85 9.02,-29.47z"/>
  <path id="svg_107" fill="#ffd037" d="m964.64,615.23c0,3.06 0.34,5.54 0.76,5.54s0.77,-2.48 0.77,-5.54s-0.43,-1.61 -0.85,-1.61s-0.68,-1.39 -0.68,1.61z"/>
  <path id="svg_108" fill="#ffd037" d="m960.4,618.92c2.68,1.47 5,2.35 5.23,2s-1.81,-1.86 -4.5,-3.32s-1.62,-0.4 -1.82,0s-1.59,-0.14 1.09,1.32z"/>
  <ellipse id="svg_109" opacity="0.1" fill="#81efc9" ry="10.66" rx="69.45" cy="714.15" cx="994.53"/>
  <path id="svg_110" fill="#65617d" d="m1030.27,646.66l-0.33,2.71l-0.47,3.83l-0.19,1.6l-0.47,3.83l-0.2,1.6l-0.46,3.83l-5.32,43.56c-0.47,3.89 -6.83,6.92 -14.5,6.92l-27.61,0c-7.67,0 -14,-3 -14.49,-6.92l-5.32,-43.56l-0.47,-3.83l-0.19,-1.6l-0.48,-3.83l-0.2,-1.57l-0.46,-3.83l-0.34,-2.71c-0.26,-2.2 3.17,-4.06 7.51,-4.06l56.48,0c4.34,-0.03 7.81,1.83 7.51,4.03z"/>
  <polygon id="svg_111" fill="#9d9cb5" points="1029.94 649.37 1029.47 653.19 959.58 653.19 959.12 649.37 1029.94 649.37"/>
  <polygon id="svg_112" fill="#9d9cb5" points="1029.28 654.79 1028.82 658.63 960.25 658.63 959.78 654.79 1029.28 654.79"/>
  <polygon id="svg_113" fill="#9d9cb5" points="1028.61 660.22 1028.15 664.05 960.91 664.05 960.45 660.22 1028.61 660.22"/>
 </g>
</svg>