<svg width="1101.15" height="790.4500000000002" xmlns="http://www.w3.org/2000/svg">
 <title>weather</title>

 <g>
  <title>background</title>
  <rect fill="none" id="canvas_background" height="792.45" width="1103.15" y="-1" x="-1"/>
 </g>
 <g>
  <title>Layer 1</title>
  <path id="svg_1" opacity="0.1" fill="#81efc9" d="m726.09312,78.61947c-43.78,30.47 -100.57,28.5 -150.34,12.65s-95.48,-44.09 -144,-64.16a470.28,470.28 0 0 0 -126.46,-32.78c-61.8,-7 -130.81,1.53 -173.87,50.8c-47.95,54.87 -44.27,153.82 7.59,204.19c26.38,25.62 60.93,38.19 91,58.19s58,53.22 55.45,91.83c-2.38,35.74 -30,63.16 -58.57,80.37c-22.08,13.3 -49.29,27.82 -51.95,55.37c-2.57,26.65 20.3,47.54 42.14,59.41c71.25,38.75 159,38.38 230,-1c25.32,-14 48.6,-32.71 75.15,-43.65c69.73,-28.73 146.56,0.19 220.39,10.76a443.07,443.07 0 0 0 187.44,-13.56c36.57,-10.74 73.27,-27.15 98.95,-57.73c18.52,-22 30.06,-49.95 40.9,-77.5q17.32,-44.08 33.31,-88.78c6.39,-17.89 12.69,-36.12 14.34,-55.26c3,-34.69 -9.62,-69 -26.79,-98.24c-40.77,-69.49 -109.45,-118.36 -183.78,-130.77s-153.09,11.83 -210.77,64.88"/>
  <path fill="#d7fff1" fill-opacity="0" id="svg_49" opacity="0.1" d="m187.96,655.9a15.48,15.48 0 0 0 -1.85,5.33c5.24,7.63 36.41,-0.37 39,-1a104.23,104.23 0 0 1 -3.81,-11.61s-31.09,4.18 -33.34,7.28z"/>
  <ellipse id="svg_97" opacity="0.1" fill="#81efc9" ry="6.06" rx="39.46" cy="754.399948" cx="196.086336"/>
  <ellipse id="svg_98" opacity="0.1" fill="#81efc9" ry="6.06" rx="39.46" cy="753.13" cx="641.1"/>
  <ellipse id="svg_99" opacity="0.1" fill="#81efc9" ry="6.06" rx="39.46" cy="709.39" cx="459.31"/>
  <ellipse id="svg_100" opacity="0.1" fill="#81efc9" ry="6.06" rx="39.46" cy="673.06" cx="574.176661"/>
 </g>
</svg>