<svg xmlns="http://www.w3.org/2000/svg" width="193" height="158"><rect id="backgroundrect" width="100%" height="100%" x="0" y="0" fill="none" stroke="none" class="" style=""/>
 <title>weather</title>

 <g style="">
  <title>background</title>
  <rect x="-1" y="-1" width="1105" height="794" id="canvas_background" fill="none"/>
 </g>
 <g style="" class="currentLayer">
  <title>Layer 1</title>
  <path d="m112.76118099999997,19.152331000000004 s6.6400000000000015,8.69 -3.07,21.8 s-17.71,24.2 -14.43,32.33 c0,0 14.64,-24.35 26.57,-24.69 s4.04,-14.82 -9.07,-29.44 z" fill="#8cd790" id="svg_101" class=""/>
  <path d="m112.76118099999997,19.152331000000004 a10.93,10.93 0 0 1 1.36,2.73 c11.63,13.66 17.83,26.42 6.6400000000000015,26.74 c-10.41,0.29000000000000026 -22.91,18.92 -25.9,23.62 a10.34,10.34 0 0 0 0.36000000000000026,1.07 s14.64,-24.35 26.57,-24.69 s4.08,-14.85 -9.03,-29.47 z" opacity="0.1" id="svg_102" class=""/>
  <path d="m125.11118099999999,30.152331000000004 c0,3.06 -0.35000000000000026,5.54 -0.77,5.54 s-0.77,-2.48 -0.77,-5.54 s0.43000000000000027,-1.61 0.8600000000000005,-1.61 s0.6800000000000008,-1.3900000000000001 0.6800000000000008,1.61 z" fill="#ffd037" id="svg_103" class=""/>
  <path d="m129.341181,33.842331 c-2.68,1.47 -5,2.35 -5.22,2 s1.81,-1.86 4.49,-3.3200000000000003 s1.6300000000000003,-0.4 1.83,0 s1.59,-0.14 -1.1,1.32 z" fill="#ffd037" id="svg_104" class=""/>
  <path d="m77.67118100000005,19.152331000000004 s-6.6400000000000015,8.69 3.07,21.8 s17.71,24.2 14.52,32.33 c0,0 -14.65,-24.35 -26.57,-24.69 s-4.13,-14.82 8.98,-29.44 z" fill="#8cd790" id="svg_105" class=""/>
  <path d="m77.67118100000005,19.152331000000004 a10.74,10.74 0 0 0 -1.35,2.73 c-11.63,13.66 -17.83,26.42 -6.65,26.74 c10.41,0.29000000000000026 22.91,18.92 25.9,23.62 a10.28,10.28 0 0 1 -0.35000000000000026,1.07 s-14.65,-24.35 -26.57,-24.69 s-4.09,-14.85 9.02,-29.47 z" opacity="0.1" id="svg_106" class=""/>
  <path d="m65.33118100000002,30.152331000000004 c0,3.06 0.3400000000000004,5.54 0.7600000000000007,5.54 s0.77,-2.48 0.77,-5.54 s-0.43000000000000027,-1.61 -0.8500000000000005,-1.61 s-0.6800000000000008,-1.3900000000000001 -0.6800000000000008,1.61 z" fill="#ffd037" id="svg_107" class=""/>
  <path d="m61.091181000000006,33.842331 c2.68,1.47 5,2.35 5.23,2 s-1.81,-1.86 -4.5,-3.3200000000000003 s-1.62,-0.4 -1.82,0 s-1.59,-0.14 1.09,1.32 z" fill="#ffd037" id="svg_108" class=""/>
  <ellipse cx="95.22119140625" cy="129.07232666015625" rx="69.44999694824219" ry="10.65999984741211" fill="#81efc9" opacity="0.1" id="svg_109" class=""/>
  <path d="m130.961181,61.58233100000001 l-0.33000000000000035,2.71 l-0.47000000000000025,3.83 l-0.19000000000000014,1.6 l-0.47000000000000025,3.83 l-0.2,1.6 l-0.46,3.83 l-5.32,43.56 c-0.47000000000000025,3.89 -6.83,6.92 -14.5,6.92 l-27.61,0 c-7.67,0 -14,-3 -14.49,-6.92 l-5.32,-43.56 l-0.47000000000000025,-3.83 l-0.19000000000000014,-1.6 l-0.48000000000000026,-3.83 l-0.2,-1.57 l-0.46,-3.83 l-0.3400000000000004,-2.71 c-0.26,-2.2 3.17,-4.06 7.51,-4.06 l56.48,0 c4.34,-0.030000000000000034 7.8100000000000005,1.83 7.51,4.03 z" fill="#65617d" id="svg_110" class=""/>
  <polygon points="130.63116455078125,64.29232788085938 130.16119384765625,68.11233520507812 60.27117919921875,68.11233520507812 59.8111572265625,64.29232788085938 130.63116455078125,64.29232788085938 " fill="#9d9cb5" id="svg_111" class=""/>
  <polygon points="129.97125244140625,69.71231079101562 129.51116943359375,73.55233764648438 60.941162109375,73.55233764648438 60.47119140625,69.71231079101562 129.97125244140625,69.71231079101562 " fill="#9d9cb5" id="svg_112" class=""/>
  <polygon points="129.30120849609375,75.14230346679688 128.84124755859375,78.97232055664062 61.60113525390625,78.97232055664062 61.14117431640625,75.14230346679688 129.30120849609375,75.14230346679688 " fill="#9d9cb5" id="svg_113" class=""/>
 </g>
</svg>